<svg version="1.1" id="Layer_1" xmlns="http://www.w3.org/2000/svg" xmlns:xlink="http://www.w3.org/1999/xlink" x="0px" y="0px"
	 width="100%" viewBox="0 0 500 500" enable-background="new 0 0 500 500" xml:space="preserve">
<path fill="#01BF63" opacity="1.000000" stroke="none" 
	d="
M286.000000,501.000000 
	C190.666687,501.000000 95.833382,501.000000 1.000051,501.000000 
	C1.000034,334.333405 1.000034,167.666794 1.000017,1.000140 
	C167.666565,1.000094 334.333130,1.000094 500.999756,1.000047 
	C500.999847,167.666519 500.999847,334.333038 500.999939,500.999786 
	C429.500000,501.000000 358.000000,501.000000 286.000000,501.000000 
M276.771851,275.611359 
	C280.470520,286.049866 287.549683,294.009216 297.310242,298.410431 
	C308.590454,303.496826 320.671936,306.794281 332.365784,310.979431 
	C340.615051,313.931793 349.068207,316.510895 356.920563,320.310211 
	C362.634003,323.074585 365.384918,328.694885 364.707733,335.349274 
	C363.985016,342.451355 359.686066,346.799225 353.218414,349.044281 
	C344.288452,352.144043 335.192291,352.146393 326.250702,349.229309 
	C316.503113,346.049255 310.649780,339.419739 309.671051,328.929016 
	C309.597382,328.139435 309.280701,327.372498 309.068268,326.561798 
	C296.929443,326.561798 285.017059,326.561798 272.861145,326.561798 
	C272.462250,336.960571 274.873352,346.347748 280.083130,354.926331 
	C289.382996,370.239929 304.147186,377.240570 321.261078,380.846741 
	C321.261078,389.425781 321.261078,397.687012 321.261078,406.161469 
	C331.624084,406.161469 341.561920,406.161469 351.882385,406.161469 
	C351.882385,397.998047 351.882385,390.053650 351.882385,381.768372 
	C353.810577,381.455536 355.425781,381.217072 357.032104,380.929169 
	C370.962158,378.432007 383.736328,373.559113 392.976288,362.212219 
	C410.703308,340.442963 404.673706,308.536835 380.209167,294.158386 
	C368.007812,286.987335 354.387817,283.788116 340.939301,279.957672 
	C332.867462,277.658569 324.649506,274.855225 317.496887,270.598694 
	C308.165558,265.045624 308.486969,252.589096 317.139893,246.235458 
	C334.545654,233.454803 359.722107,243.068085 363.687897,263.997620 
	C363.743042,264.288483 364.055817,264.530518 364.208435,264.740479 
	C376.017090,264.740479 387.780426,264.740479 399.517487,264.740479 
	C401.250244,239.603485 386.455811,223.092743 351.714905,211.444733 
	C351.714905,203.858582 351.714905,196.098145 351.714905,188.221710 
	C341.500427,188.221710 331.770905,188.221710 321.716858,188.221710 
	C321.716858,194.670517 321.510193,200.820480 321.795380,206.947571 
	C321.962921,210.547165 320.756134,211.610031 317.193451,212.260971 
	C283.867828,218.349884 267.448883,243.743683 276.771851,275.611359 
M241.282867,334.690399 
	C242.194839,328.113159 243.834152,321.542755 243.895981,314.957520 
	C244.204239,282.133362 244.100220,249.305313 244.123077,216.478607 
	C244.123611,215.702515 243.910706,214.926239 243.814667,214.268616 
	C231.280060,214.268616 219.064621,214.268616 206.660614,214.268616 
	C206.660614,216.660843 206.660645,218.655884 206.660614,220.650909 
	C206.660202,248.979065 206.830566,277.308990 206.539322,305.634155 
	C206.466476,312.718201 205.740463,320.018036 203.854858,326.813660 
	C200.172974,340.082886 189.899597,346.672546 174.997894,346.641510 
	C160.082977,346.610443 149.855942,340.000183 146.186813,326.733704 
	C144.351120,320.096313 143.683380,312.960663 143.617294,306.039612 
	C143.343658,277.380798 143.501419,248.717850 143.500778,220.056412 
	C143.500732,218.107056 143.500778,216.157715 143.500778,214.223236 
	C130.647995,214.223236 118.415329,214.223236 106.163635,214.223236 
	C106.163635,249.548767 105.729271,284.530029 106.368385,319.491699 
	C106.640121,334.356415 111.592178,348.298431 121.436485,359.951080 
	C135.147659,376.180939 153.388382,381.869293 173.900330,382.236481 
	C208.206238,382.850555 231.783356,366.473816 241.282867,334.690399 
M123.217415,165.219757 
	C123.277046,164.306595 123.336678,163.393433 123.406616,162.322327 
	C142.064316,170.665680 156.210083,168.412277 165.476562,155.884277 
	C173.843918,144.571869 173.526718,126.343605 163.643219,116.152946 
	C159.602722,111.986893 153.665039,108.909462 148.025970,107.211563 
	C138.218750,104.258652 129.109268,107.470673 120.954765,114.042458 
	C120.121216,111.761703 119.451416,109.928993 118.799652,108.145630 
	C114.687668,108.145630 110.742653,108.145630 106.533432,108.145630 
	C106.533432,134.781464 106.533432,161.173782 106.533432,187.807800 
	C112.139786,187.807800 117.513992,187.807800 123.217010,187.807800 
	C123.217010,180.356522 123.217010,173.221054 123.217415,165.219757 
M395.976562,153.262589 
	C396.776581,151.711823 397.576569,150.161057 398.473938,148.421600 
	C387.753418,147.120346 384.959991,147.597397 376.854584,151.928513 
	C366.906067,157.244507 355.030792,152.158798 354.142670,141.882355 
	C361.643677,141.882355 369.119751,141.882355 376.595856,141.882355 
	C384.211060,141.882355 391.826233,141.882355 399.355591,141.882355 
	C402.279755,123.696846 390.268463,108.571846 371.663147,106.418327 
	C358.434296,104.887115 345.300720,111.511002 339.809448,122.483704 
	C333.976776,134.138458 335.996552,149.141479 344.671173,158.308777 
	C357.635925,172.009872 384.701019,170.554108 395.976562,153.262589 
M268.578064,121.174713 
	C262.207550,133.856735 263.418793,147.334152 271.807861,157.113739 
	C279.946167,166.600998 294.871643,170.165894 308.038361,165.767212 
	C318.676392,162.213303 326.760529,152.655670 327.391144,142.625687 
	C324.064545,142.625687 320.742493,142.775833 317.440216,142.584686 
	C313.931458,142.381622 311.467377,143.039200 309.351349,146.498840 
	C305.791626,152.318939 298.410339,154.282349 291.678162,152.154602 
	C285.194275,150.105347 281.173096,144.219955 281.208862,136.831772 
	C281.243866,129.604584 285.066345,123.900314 291.324829,121.735809 
	C297.927673,119.452202 305.010712,121.574493 309.280884,126.904274 
	C310.315216,128.195282 311.816193,129.851120 313.219940,129.971588 
	C317.771149,130.362183 322.376831,130.117538 327.024048,130.117538 
	C325.673645,119.125145 317.523926,110.650085 305.877258,107.598648 
	C290.982788,103.696266 277.872803,108.294418 268.578064,121.174713 
M184.746292,165.895859 
	C190.006699,165.895859 195.267090,165.895859 200.857224,165.895859 
	C200.857224,160.875748 200.847244,156.403305 200.860031,151.930939 
	C200.872894,147.432327 200.791763,142.929459 200.957779,138.436081 
	C201.330292,128.353149 206.111496,123.601440 216.181122,123.175217 
	C218.266495,123.086952 220.358795,123.162407 222.456329,123.162407 
	C222.456329,117.678055 222.456329,112.937767 222.456329,108.107376 
	C213.538528,107.463409 205.200989,107.670280 198.648117,114.937775 
	C197.732956,112.176247 197.069260,110.173515 196.397903,108.147629 
	C192.218430,108.147629 188.291901,108.147629 184.048279,108.147629 
	C184.048279,127.335350 184.048279,146.283661 184.746292,165.895859 
M234.916000,118.521332 
	C234.916000,134.265976 234.916000,150.010635 234.916000,165.756805 
	C240.851578,165.756805 246.111801,165.756805 251.579407,165.756805 
	C251.579407,146.457001 251.579407,127.406685 251.579407,108.250557 
	C245.918762,108.250557 240.540161,108.250557 234.916000,108.250557 
	C234.916000,111.572639 234.916000,114.551910 234.916000,118.521332 
M241.912155,78.689865 
	C235.763397,80.030830 232.788193,83.108566 232.472839,88.454544 
	C232.175003,93.503555 234.975861,97.672714 239.706177,99.050705 
	C244.191452,100.357307 248.335541,99.655487 251.570221,96.153305 
	C254.551865,92.925095 254.871429,88.950813 253.377899,84.992264 
	C251.550339,80.148384 247.562607,78.520050 241.912155,78.689865 
z"/>
<path fill="#FDFEFE" opacity="1.000000" stroke="none" 
	d="
M276.607300,275.251709 
	C267.448883,243.743683 283.867828,218.349884 317.193451,212.260971 
	C320.756134,211.610031 321.962921,210.547165 321.795380,206.947571 
	C321.510193,200.820480 321.716858,194.670517 321.716858,188.221710 
	C331.770905,188.221710 341.500427,188.221710 351.714905,188.221710 
	C351.714905,196.098145 351.714905,203.858582 351.714905,211.444733 
	C386.455811,223.092743 401.250244,239.603485 399.517487,264.740479 
	C387.780426,264.740479 376.017090,264.740479 364.208435,264.740479 
	C364.055817,264.530518 363.743042,264.288483 363.687897,263.997620 
	C359.722107,243.068085 334.545654,233.454803 317.139893,246.235458 
	C308.486969,252.589096 308.165558,265.045624 317.496887,270.598694 
	C324.649506,274.855225 332.867462,277.658569 340.939301,279.957672 
	C354.387817,283.788116 368.007812,286.987335 380.209167,294.158386 
	C404.673706,308.536835 410.703308,340.442963 392.976288,362.212219 
	C383.736328,373.559113 370.962158,378.432007 357.032104,380.929169 
	C355.425781,381.217072 353.810577,381.455536 351.882385,381.768372 
	C351.882385,390.053650 351.882385,397.998047 351.882385,406.161469 
	C341.561920,406.161469 331.624084,406.161469 321.261078,406.161469 
	C321.261078,397.687012 321.261078,389.425781 321.261078,380.846741 
	C304.147186,377.240570 289.382996,370.239929 280.083130,354.926331 
	C274.873352,346.347748 272.462250,336.960571 272.861145,326.561798 
	C285.017059,326.561798 296.929443,326.561798 309.068268,326.561798 
	C309.280701,327.372498 309.597382,328.139435 309.671051,328.929016 
	C310.649780,339.419739 316.503113,346.049255 326.250702,349.229309 
	C335.192291,352.146393 344.288452,352.144043 353.218414,349.044281 
	C359.686066,346.799225 363.985016,342.451355 364.707733,335.349274 
	C365.384918,328.694885 362.634003,323.074585 356.920563,320.310211 
	C349.068207,316.510895 340.615051,313.931793 332.365784,310.979431 
	C320.671936,306.794281 308.590454,303.496826 297.310242,298.410431 
	C287.549683,294.009216 280.470520,286.049866 276.607300,275.251709 
z"/>
<path fill="#FEFFFE" opacity="1.000000" stroke="none" 
	d="
M241.172958,335.085938 
	C231.783356,366.473816 208.206238,382.850555 173.900330,382.236481 
	C153.388382,381.869293 135.147659,376.180939 121.436485,359.951080 
	C111.592178,348.298431 106.640121,334.356415 106.368385,319.491699 
	C105.729271,284.530029 106.163635,249.548767 106.163635,214.223236 
	C118.415329,214.223236 130.647995,214.223236 143.500778,214.223236 
	C143.500778,216.157715 143.500732,218.107056 143.500778,220.056412 
	C143.501419,248.717850 143.343658,277.380798 143.617294,306.039612 
	C143.683380,312.960663 144.351120,320.096313 146.186813,326.733704 
	C149.855942,340.000183 160.082977,346.610443 174.997894,346.641510 
	C189.899597,346.672546 200.172974,340.082886 203.854858,326.813660 
	C205.740463,320.018036 206.466476,312.718201 206.539322,305.634155 
	C206.830566,277.308990 206.660202,248.979065 206.660614,220.650909 
	C206.660645,218.655884 206.660614,216.660843 206.660614,214.268616 
	C219.064621,214.268616 231.280060,214.268616 243.814667,214.268616 
	C243.910706,214.926239 244.123611,215.702515 244.123077,216.478607 
	C244.100220,249.305313 244.204239,282.133362 243.895981,314.957520 
	C243.834152,321.542755 242.194839,328.113159 241.172958,335.085938 
z"/>
<path fill="#FAFEFC" opacity="1.000000" stroke="none" 
	d="
M123.217209,165.652679 
	C123.217010,173.221054 123.217010,180.356522 123.217010,187.807800 
	C117.513992,187.807800 112.139786,187.807800 106.533432,187.807800 
	C106.533432,161.173782 106.533432,134.781464 106.533432,108.145630 
	C110.742653,108.145630 114.687668,108.145630 118.799652,108.145630 
	C119.451416,109.928993 120.121216,111.761703 120.954765,114.042458 
	C129.109268,107.470673 138.218750,104.258652 148.025970,107.211563 
	C153.665039,108.909462 159.602722,111.986893 163.643219,116.152946 
	C173.526718,126.343605 173.843918,144.571869 165.476562,155.884277 
	C156.210083,168.412277 142.064316,170.665680 123.406616,162.322327 
	C123.336678,163.393433 123.277046,164.306595 123.217209,165.652679 
M139.363907,152.970169 
	C148.555862,151.735016 153.346161,147.308914 154.355515,139.118393 
	C155.336838,131.155289 151.626770,124.393127 144.657471,121.949852 
	C138.401215,119.756546 132.394257,120.454346 127.487656,125.123581 
	C122.390778,129.973907 121.626816,136.181824 123.691818,142.617401 
	C125.957016,149.676910 131.405258,152.638657 139.363907,152.970169 
z"/>
<path fill="#FAFEFC" opacity="1.000000" stroke="none" 
	d="
M395.768433,153.575058 
	C384.701019,170.554108 357.635925,172.009872 344.671173,158.308777 
	C335.996552,149.141479 333.976776,134.138458 339.809448,122.483704 
	C345.300720,111.511002 358.434296,104.887115 371.663147,106.418327 
	C390.268463,108.571846 402.279755,123.696846 399.355591,141.882355 
	C391.826233,141.882355 384.211060,141.882355 376.595856,141.882355 
	C369.119751,141.882355 361.643677,141.882355 354.142670,141.882355 
	C355.030792,152.158798 366.906067,157.244507 376.854584,151.928513 
	C384.959991,147.597397 387.753418,147.120346 398.473938,148.421600 
	C397.576569,150.161057 396.776581,151.711823 395.768433,153.575058 
M375.047607,121.063446 
	C364.433929,117.789642 354.971008,122.290421 354.479950,130.675262 
	C363.955231,130.675262 373.436432,130.675262 382.917664,130.675262 
	C383.242371,130.223984 383.567078,129.772720 383.891785,129.321442 
	C381.186371,126.670685 378.480988,124.019928 375.047607,121.063446 
z"/>
<path fill="#FBFEFC" opacity="1.000000" stroke="none" 
	d="
M268.768799,120.860863 
	C277.872803,108.294418 290.982788,103.696266 305.877258,107.598648 
	C317.523926,110.650085 325.673645,119.125145 327.024048,130.117538 
	C322.376831,130.117538 317.771149,130.362183 313.219940,129.971588 
	C311.816193,129.851120 310.315216,128.195282 309.280884,126.904274 
	C305.010712,121.574493 297.927673,119.452202 291.324829,121.735809 
	C285.066345,123.900314 281.243866,129.604584 281.208862,136.831772 
	C281.173096,144.219955 285.194275,150.105347 291.678162,152.154602 
	C298.410339,154.282349 305.791626,152.318939 309.351349,146.498840 
	C311.467377,143.039200 313.931458,142.381622 317.440216,142.584686 
	C320.742493,142.775833 324.064545,142.625687 327.391144,142.625687 
	C326.760529,152.655670 318.676392,162.213303 308.038361,165.767212 
	C294.871643,170.165894 279.946167,166.600998 271.807861,157.113739 
	C263.418793,147.334152 262.207550,133.856735 268.768799,120.860863 
z"/>
<path fill="#FBFEFD" opacity="1.000000" stroke="none" 
	d="
M184.397278,165.563904 
	C184.048279,146.283661 184.048279,127.335350 184.048279,108.147629 
	C188.291901,108.147629 192.218430,108.147629 196.397903,108.147629 
	C197.069260,110.173515 197.732956,112.176247 198.648117,114.937775 
	C205.200989,107.670280 213.538528,107.463409 222.456329,108.107376 
	C222.456329,112.937767 222.456329,117.678055 222.456329,123.162407 
	C220.358795,123.162407 218.266495,123.086952 216.181122,123.175217 
	C206.111496,123.601440 201.330292,128.353149 200.957779,138.436081 
	C200.791763,142.929459 200.872894,147.432327 200.860031,151.930939 
	C200.847244,156.403305 200.857224,160.875748 200.857224,165.895859 
	C195.267090,165.895859 190.006699,165.895859 184.397278,165.563904 
z"/>
<path fill="#FCFEFD" opacity="1.000000" stroke="none" 
	d="
M234.916000,118.026260 
	C234.916000,114.551910 234.916000,111.572639 234.916000,108.250557 
	C240.540161,108.250557 245.918762,108.250557 251.579407,108.250557 
	C251.579407,127.406685 251.579407,146.457001 251.579407,165.756805 
	C246.111801,165.756805 240.851578,165.756805 234.916000,165.756805 
	C234.916000,150.010635 234.916000,134.265976 234.916000,118.026260 
z"/>
<path fill="#F9FDFB" opacity="1.000000" stroke="none" 
	d="
M242.290482,78.649963 
	C247.562607,78.520050 251.550339,80.148384 253.377899,84.992264 
	C254.871429,88.950813 254.551865,92.925095 251.570221,96.153305 
	C248.335541,99.655487 244.191452,100.357307 239.706177,99.050705 
	C234.975861,97.672714 232.175003,93.503555 232.472839,88.454544 
	C232.788193,83.108566 235.763397,80.030830 242.290482,78.649963 
z"/>
<path fill="#03C065" opacity="1.000000" stroke="none" 
	d="
M138.944397,152.978912 
	C131.405258,152.638657 125.957016,149.676910 123.691818,142.617401 
	C121.626816,136.181824 122.390778,129.973907 127.487656,125.123581 
	C132.394257,120.454346 138.401215,119.756546 144.657471,121.949852 
	C151.626770,124.393127 155.336838,131.155289 154.355515,139.118393 
	C153.346161,147.308914 148.555862,151.735016 138.944397,152.978912 
z"/>
<path fill="#05C066" opacity="1.000000" stroke="none" 
	d="
M375.411591,121.216309 
	C378.480988,124.019928 381.186371,126.670685 383.891785,129.321442 
	C383.567078,129.772720 383.242371,130.223984 382.917664,130.675262 
	C373.436432,130.675262 363.955231,130.675262 354.479950,130.675262 
	C354.971008,122.290421 364.433929,117.789642 375.411591,121.216309 
z"/>
</svg>